<svg width="32" height="32" viewBox="0 0 32 32" fill="none" xmlns="http://www.w3.org/2000/svg">
    <path fill-rule="evenodd" clip-rule="evenodd"
          d="M16.629 7.15251C17.8678 7.15251 18.872 6.14831 18.872 4.90957C18.872 3.67083 17.8678 2.66663 16.629 2.66663C15.3903 2.66663 14.3861 3.67083 14.3861 4.90957C14.3861 6.14831 15.3903 7.15251 16.629 7.15251ZM14.6584 7.48899L9.93222 7.68125C9.32342 7.68125 8.7723 7.8735 8.6185 9.02701L8.02572 13.0643C7.94561 13.5022 8.00649 14.4037 8.89086 14.5062C9.99631 14.6344 10.1245 13.8333 10.2206 13.2085C10.2975 12.7086 10.5944 10.7893 10.7333 9.89215L13.0243 9.79602L12.4155 14.6504C12.3995 15.2165 12.6238 16.4992 13.6491 17.1016C13.5594 18.2039 13.3874 21.1709 13.3127 22.5167L11.2139 27.6755C11.059 28.0333 10.9319 28.8386 11.6625 29.1975C12.5757 29.6461 13.1364 28.9091 13.4568 28.076C13.7132 27.4095 14.8026 24.6902 15.3153 23.4139C15.3633 23.3178 15.4883 22.9269 15.6037 22.1322C15.719 21.3376 16.0469 18.7251 16.1964 17.5182L19.641 17.374L18.4394 21.4914C18.2792 21.8705 18.1542 22.7218 18.936 23.0935C19.9133 23.5581 20.442 22.5167 20.6022 22.004C20.7304 21.5939 21.7023 18.2017 22.1723 16.5569C22.3218 16.0763 22.2652 15.0958 20.8425 15.0189C19.4199 14.942 17.4621 14.8907 16.6611 14.8747L17.3019 10.7733L19.3366 12.6157C19.7424 13.0536 20.7272 13.6667 21.4193 12.6157C22.1114 11.5647 23.5554 9.35811 24.1909 8.38617C24.3832 8.02303 24.6075 7.20382 23.9666 6.83213C23.1656 6.36752 22.6049 6.67192 22.1723 7.3448C21.8262 7.88311 20.7251 9.60911 20.2177 10.4048L18.0228 8.38617C17.7985 8.05062 16.8116 7.4014 14.6584 7.48899Z"
          fill="#000"/>
</svg>
