<svg width="32" height="32" viewBox="0 0 32 32" fill="none" xmlns="http://www.w3.org/2000/svg">
    <path fill-rule="evenodd" clip-rule="evenodd"
          d="M17.3109 7.84997C18.7422 7.84997 19.9025 6.68967 19.9025 5.25836C19.9025 3.82705 18.7422 2.66675 17.3109 2.66675C15.8796 2.66675 14.7193 3.82705 14.7193 5.25836C14.7193 6.68967 15.8796 7.84997 17.3109 7.84997ZM12.2896 10.4415C12.3661 10.3841 12.442 10.3268 12.5177 10.2696C13.7238 9.35831 14.8627 8.4978 17.1489 8.4978C19.3517 8.4978 19.9025 10.2255 19.9025 11.0894V18.3783C21.4143 18.4863 24.697 18.7347 25.7336 18.8643C26.7703 18.9938 27.0294 19.9981 27.0294 20.484V27.9349C27.0294 28.3668 26.7703 29.2307 25.7336 29.2307C24.697 29.2307 24.4378 28.3668 24.4378 27.9349V21.4559H17.4729L15.0432 25.8292C14.3953 26.9954 13.5855 27.503 13.2615 27.6109C12.3436 27.8809 10.184 28.518 8.88815 28.9068C7.2684 29.3927 5.48665 29.7166 5.00072 28.4208C4.61198 27.3842 5.37867 26.8011 5.8106 26.6391C6.89044 26.3691 9.40647 25.732 10.8319 25.3433C12.2572 24.9545 12.7216 24.3174 12.7756 24.0475L14.7193 18.3783C13.3155 17.4065 10.2811 15.3008 9.37403 14.6529C8.46697 14.005 8.99609 13.0871 9.37403 12.7092C9.91395 12.2772 11.253 11.219 12.2896 10.4415ZM14.7193 11.7374L12.4516 13.5192L14.7193 15.1389V11.7374Z"
          fill="#fff"/>
</svg>
