<svg width="32" height="32" viewBox="0 0 32 32" fill="none" xmlns="http://www.w3.org/2000/svg">
<path fill-rule="evenodd" clip-rule="evenodd" d="M18.6668 8.22224C20.2009 8.22224 21.4445 6.97859 21.4445 5.44447C21.4445 3.91034 20.2009 2.66669 18.6668 2.66669C17.1326 2.66669 15.889 3.91034 15.889 5.44447C15.889 6.97859 17.1326 8.22224 18.6668 8.22224ZM8.66665 10.4444C8.66665 9.21711 9.66157 8.22219 10.8889 8.22219H16.5652C17.1824 8.22219 17.765 8.50713 18.1439 8.99431L21.2641 13.0059L24.9432 11.6263C25.5178 11.4108 26.1582 11.7019 26.3737 12.2765C26.5891 12.8511 26.298 13.4915 25.7235 13.707L22.0444 15.0867C21.1338 15.4281 20.107 15.1379 19.51 14.3702L18.1293 12.5951L17.0884 16.7588L20.2192 18.7156C21.4768 19.5016 21.6262 21.2756 20.5177 22.2609L16.6271 25.7193C16.1684 26.127 15.4661 26.0857 15.0584 25.627C14.6507 25.1684 14.692 24.4661 15.1507 24.0584L19.0414 20.6L14.7603 17.9243L12.3914 23.8466L7.2301 29.0079C6.79618 29.4418 6.09267 29.4418 5.65875 29.0079C5.22483 28.5739 5.22483 27.8704 5.65875 27.4365L10.4067 22.6885L13.9051 10.4444H10.8889V14.3333C10.8889 14.9469 10.3914 15.4444 9.77776 15.4444C9.16411 15.4444 8.66665 14.9469 8.66665 14.3333V10.4444Z" fill="#A4FF00"/>
</svg>
