<svg width="32" height="32" viewBox="0 0 32 32" fill="none" xmlns="http://www.w3.org/2000/svg">
    <path fill-rule="evenodd" clip-rule="evenodd"
          d="M15.9999 7.99996C17.4727 7.99996 18.6666 6.80607 18.6666 5.33332C18.6666 3.86058 17.4727 2.66669 15.9999 2.66669C14.5272 2.66669 13.3333 3.86058 13.3333 5.33332C13.3333 6.80607 14.5272 7.99996 15.9999 7.99996ZM15.9999 8.53329L15.9999 8.5333H16.5332C16.869 8.5333 17.1851 8.69137 17.3866 8.95996L20.4672 13.0675L24.5652 15.6287C25.0647 15.9409 25.2166 16.599 24.9044 17.0985C24.5921 17.5981 23.9341 17.75 23.4345 17.4377L19.1679 14.7711C19.0564 14.7014 18.9588 14.6117 18.8799 14.5066L16.993 11.9907L16.5716 19.5763L19.4558 22.749C19.5557 22.8588 19.6315 22.9883 19.6785 23.1292L21.2785 27.9291C21.4647 28.488 21.1627 29.092 20.6038 29.2783C20.045 29.4646 19.4409 29.1626 19.2546 28.6037L17.7258 24.0174L15.4197 21.4806L13.7324 24.5178C13.6958 24.5837 13.6523 24.6455 13.6027 24.7022L9.86941 28.9688C9.48149 29.4121 8.80761 29.4571 8.36427 29.0691C7.92093 28.6812 7.87601 28.0074 8.26393 27.564L11.9226 23.3827L13.905 19.8144L12.544 18.3174C12.349 18.1029 12.2497 17.8182 12.269 17.5289L12.631 12.0984L10.6667 13.8173V17.5999C10.6667 18.189 10.1891 18.6665 9.6 18.6665C9.0109 18.6665 8.53334 18.189 8.53334 17.5999V13.3332C8.53334 13.0257 8.66612 12.7331 8.8976 12.5305L13.1642 8.79722C13.3628 8.62347 13.6134 8.53334 13.8666 8.53329H13.8668H13.8669H15.9999Z"
          fill="#fff"/>
</svg>
